<svg width="1440" height="822" viewBox="0 0 1440 822" fill="none" xmlns="http://www.w3.org/2000/svg">
<g style="mix-blend-mode:overlay">
<path d="M601.07 175.16C392.617 199.539 238 289.015 238 395.665C238 521.07 451.781 622.731 715.493 622.731C979.204 622.731 1192.99 521.07 1192.99 395.665C1192.99 285.564 1028.2 193.766 809.514 173" stroke="url(#paint0_angular_1_1363)" stroke-width="1.70856" stroke-linecap="round"/>
</g>
<g style="mix-blend-mode:overlay">
<path d="M601.07 176.76C392.617 201.138 238 290.615 238 397.264C238 522.669 451.781 624.33 715.493 624.33C979.204 624.33 1192.99 522.669 1192.99 397.264C1192.99 287.164 1028.2 195.366 809.514 174.599" stroke="url(#paint1_angular_1_1363)" stroke-width="1.70856" stroke-linecap="round"/>
</g>
<g style="mix-blend-mode:overlay">
<path d="M825.746 180.28C1036.3 203.946 1192.99 293.903 1192.99 401.263C1192.99 526.668 979.204 628.328 715.493 628.328C451.781 628.328 238 526.668 238 401.263C238 296.369 387.568 208.088 590.818 182.015" stroke="url(#paint2_angular_1_1363)" stroke-width="1.70856" stroke-linecap="round"/>
</g>
<g style="mix-blend-mode:overlay">
<path d="M574.587 190.643C379.655 219.231 238 305.579 238 407.66C238 533.065 451.781 634.726 715.493 634.726C979.204 634.726 1192.99 533.065 1192.99 407.66C1192.99 302.27 1042 213.65 837.279 188.046" stroke="url(#paint3_angular_1_1363)" stroke-width="1.70856" stroke-linecap="round"/>
</g>
<g style="mix-blend-mode:overlay">
<path d="M854.791 199.204C1050.55 227.553 1192.99 314.094 1192.99 416.456C1192.99 541.861 979.204 643.522 715.493 643.522C451.781 643.522 238 541.861 238 416.456C238 317.457 371.228 233.256 557.074 202.185" stroke="url(#paint4_angular_1_1363)" stroke-width="1.70856" stroke-linecap="round"/>
</g>
<g style="mix-blend-mode:overlay">
<path d="M490.195 5.75585C127.801 48.1378 -141 203.692 -141 389.102C-141 607.118 230.657 783.855 689.119 783.855C1147.58 783.855 1519.24 607.118 1519.24 389.102C1519.24 197.693 1232.76 38.1023 852.575 2" stroke="url(#paint5_angular_1_1363)" stroke-width="2.97033" stroke-linecap="round"/>
</g>
<g style="mix-blend-mode:overlay">
<path d="M490.195 8.536C127.801 50.918 -141 206.473 -141 391.882C-141 609.898 230.657 786.635 689.119 786.635C1147.58 786.635 1519.24 609.898 1519.24 391.882C1519.24 200.473 1232.76 40.8824 852.575 4.78015" stroke="url(#paint6_angular_1_1363)" stroke-width="2.97033" stroke-linecap="round"/>
</g>
<g style="mix-blend-mode:overlay">
<path d="M880.794 14.6561C1246.85 55.7999 1519.24 212.19 1519.24 398.834C1519.24 616.85 1147.58 793.586 689.119 793.586C230.657 793.586 -141 616.85 -141 398.834C-141 216.476 119.023 62.9994 472.373 17.6723" stroke="url(#paint7_angular_1_1363)" stroke-width="2.97033" stroke-linecap="round"/>
</g>
<g style="mix-blend-mode:overlay">
<path d="M444.155 32.6717C105.266 82.372 -141 232.487 -141 409.955C-141 627.971 230.657 804.708 689.119 804.708C1147.58 804.708 1519.24 627.971 1519.24 409.955C1519.24 226.735 1256.75 72.6696 900.843 28.158" stroke="url(#paint8_angular_1_1363)" stroke-width="2.97033" stroke-linecap="round"/>
</g>
<g style="mix-blend-mode:overlay">
<path d="M931.289 47.5563C1271.62 96.8397 1519.24 247.292 1519.24 425.247C1519.24 643.263 1147.58 820 689.119 820C230.657 820 -141 643.263 -141 425.247C-141 253.139 90.6161 106.756 413.709 52.739" stroke="url(#paint9_angular_1_1363)" stroke-width="2.97033" stroke-linecap="round"/>
</g>
<defs>
<radialGradient id="paint0_angular_1_1363" cx="0" cy="0" r="1" gradientUnits="userSpaceOnUse" gradientTransform="translate(722.381 417.459) scale(508.767 237.904)">
<stop offset="0.458333" stop-color="white"/>
<stop offset="0.717799" stop-color="white" stop-opacity="0"/>
<stop offset="0.782437" stop-color="white" stop-opacity="0"/>
<stop offset="1" stop-color="white" stop-opacity="0.4"/>
</radialGradient>
<radialGradient id="paint1_angular_1_1363" cx="0" cy="0" r="1" gradientUnits="userSpaceOnUse" gradientTransform="translate(722.381 419.059) scale(508.767 237.905)">
<stop offset="0.458333" stop-color="white"/>
<stop offset="0.717799" stop-color="white" stop-opacity="0"/>
<stop offset="0.782437" stop-color="white" stop-opacity="0"/>
<stop offset="1" stop-color="white" stop-opacity="0.4"/>
</radialGradient>
<radialGradient id="paint2_angular_1_1363" cx="0" cy="0" r="1" gradientUnits="userSpaceOnUse" gradientTransform="translate(722.381 423.825) scale(508.767 237.015)">
<stop offset="0.458333" stop-color="white"/>
<stop offset="0.717799" stop-color="white" stop-opacity="0"/>
<stop offset="0.782437" stop-color="white" stop-opacity="0"/>
<stop offset="1" stop-color="white" stop-opacity="0.4"/>
</radialGradient>
<radialGradient id="paint3_angular_1_1363" cx="0" cy="0" r="1" gradientUnits="userSpaceOnUse" gradientTransform="translate(722.381 430.847) scale(508.767 236.29)">
<stop offset="0.458333" stop-color="white"/>
<stop offset="0.717799" stop-color="white" stop-opacity="0"/>
<stop offset="0.782437" stop-color="white" stop-opacity="0"/>
<stop offset="1" stop-color="white" stop-opacity="0.4"/>
</radialGradient>
<radialGradient id="paint4_angular_1_1363" cx="0" cy="0" r="1" gradientUnits="userSpaceOnUse" gradientTransform="translate(722.381 440.721) scale(508.767 235.041)">
<stop offset="0.458333" stop-color="white"/>
<stop offset="0.717799" stop-color="white" stop-opacity="0"/>
<stop offset="0.782437" stop-color="white" stop-opacity="0"/>
<stop offset="1" stop-color="white" stop-opacity="0.4"/>
</radialGradient>
<radialGradient id="paint5_angular_1_1363" cx="0" cy="0" r="1" gradientUnits="userSpaceOnUse" gradientTransform="translate(701.095 426.992) scale(884.489 413.596)">
<stop offset="0.458333" stop-color="white"/>
<stop offset="0.717799" stop-color="white" stop-opacity="0"/>
<stop offset="0.782437" stop-color="white" stop-opacity="0"/>
<stop offset="1" stop-color="white" stop-opacity="0.4"/>
</radialGradient>
<radialGradient id="paint6_angular_1_1363" cx="0" cy="0" r="1" gradientUnits="userSpaceOnUse" gradientTransform="translate(701.095 429.772) scale(884.489 413.596)">
<stop offset="0.458333" stop-color="white"/>
<stop offset="0.717799" stop-color="white" stop-opacity="0"/>
<stop offset="0.782437" stop-color="white" stop-opacity="0"/>
<stop offset="1" stop-color="white" stop-opacity="0.4"/>
</radialGradient>
<radialGradient id="paint7_angular_1_1363" cx="0" cy="0" r="1" gradientUnits="userSpaceOnUse" gradientTransform="translate(701.095 438.058) scale(884.489 412.049)">
<stop offset="0.458333" stop-color="white"/>
<stop offset="0.717799" stop-color="white" stop-opacity="0"/>
<stop offset="0.782437" stop-color="white" stop-opacity="0"/>
<stop offset="1" stop-color="white" stop-opacity="0.4"/>
</radialGradient>
<radialGradient id="paint8_angular_1_1363" cx="0" cy="0" r="1" gradientUnits="userSpaceOnUse" gradientTransform="translate(701.095 450.266) scale(884.489 410.79)">
<stop offset="0.458333" stop-color="white"/>
<stop offset="0.717799" stop-color="white" stop-opacity="0"/>
<stop offset="0.782437" stop-color="white" stop-opacity="0"/>
<stop offset="1" stop-color="white" stop-opacity="0.4"/>
</radialGradient>
<radialGradient id="paint9_angular_1_1363" cx="0" cy="0" r="1" gradientUnits="userSpaceOnUse" gradientTransform="translate(701.095 467.432) scale(884.489 408.618)">
<stop offset="0.458333" stop-color="white"/>
<stop offset="0.717799" stop-color="white" stop-opacity="0"/>
<stop offset="0.782437" stop-color="white" stop-opacity="0"/>
<stop offset="1" stop-color="white" stop-opacity="0.4"/>
</radialGradient>
</defs>
</svg>
